<mxfile host="Electron" agent="Mozilla/5.0 (Windows NT 10.0; Win64; x64) AppleWebKit/537.36 (KHTML, like Gecko) draw.io/27.0.9 Chrome/134.0.6998.205 Electron/35.4.0 Safari/537.36" version="27.0.9">
  <diagram name="PÃ¡gina-1" id="CbR-ibp5CvGN2kw1lptG">
    <mxGraphModel dx="1426" dy="849" grid="1" gridSize="10" guides="1" tooltips="1" connect="1" arrows="1" fold="1" page="1" pageScale="1" pageWidth="1169" pageHeight="1654" math="0" shadow="0">
      <root>
        <mxCell id="0" />
        <mxCell id="1" parent="0" />
        <mxCell id="DL78E8KKgz5CMaSvNPzL-197" value="pwm_top" style="rounded=0;whiteSpace=wrap;html=1;fontStyle=1;verticalAlign=top;align=left;spacingLeft=10;fontSize=14;strokeWidth=3;" parent="1" vertex="1">
          <mxGeometry x="80" y="40" width="1000" height="600" as="geometry" />
        </mxCell>
        <mxCell id="Adk1zG7lPjc5x8-QMkRp-4" style="edgeStyle=orthogonalEdgeStyle;rounded=0;orthogonalLoop=1;jettySize=auto;html=1;exitX=0;exitY=0.5;exitDx=0;exitDy=0;entryX=0;entryY=0.5;entryDx=0;entryDy=0;" edge="1" parent="1" source="SxJLtVNwrpAvZ2XM1vWD-6" target="Adk1zG7lPjc5x8-QMkRp-1">
          <mxGeometry relative="1" as="geometry">
            <Array as="points">
              <mxPoint x="200" y="305" />
              <mxPoint x="200" y="160" />
              <mxPoint x="720" y="160" />
              <mxPoint x="720" y="305" />
            </Array>
          </mxGeometry>
        </mxCell>
        <mxCell id="6HlnNBoYdWgncvJoV9WV-7" style="edgeStyle=orthogonalEdgeStyle;rounded=0;orthogonalLoop=1;jettySize=auto;html=1;exitX=0;exitY=0.5;exitDx=0;exitDy=0;entryX=0;entryY=0.5;entryDx=0;entryDy=0;endArrow=none;startFill=0;" parent="1" source="6HlnNBoYdWgncvJoV9WV-3" target="SxJLtVNwrpAvZ2XM1vWD-10" edge="1">
          <mxGeometry relative="1" as="geometry">
            <Array as="points">
              <mxPoint x="480" y="395" />
              <mxPoint x="480" y="530" />
              <mxPoint x="160" y="530" />
              <mxPoint x="160" y="365" />
            </Array>
          </mxGeometry>
        </mxCell>
        <mxCell id="SxJLtVNwrpAvZ2XM1vWD-93" style="edgeStyle=orthogonalEdgeStyle;rounded=0;orthogonalLoop=1;jettySize=auto;html=1;exitX=0;exitY=0.5;exitDx=0;exitDy=0;entryX=0;entryY=0.5;entryDx=0;entryDy=0;" parent="1" source="SxJLtVNwrpAvZ2XM1vWD-14" target="SxJLtVNwrpAvZ2XM1vWD-4" edge="1">
          <mxGeometry relative="1" as="geometry">
            <Array as="points">
              <mxPoint x="520" y="245" />
              <mxPoint x="520" y="80" />
              <mxPoint x="120" y="80" />
              <mxPoint x="120" y="245" />
            </Array>
          </mxGeometry>
        </mxCell>
        <mxCell id="SxJLtVNwrpAvZ2XM1vWD-94" style="edgeStyle=orthogonalEdgeStyle;rounded=0;orthogonalLoop=1;jettySize=auto;html=1;exitX=0;exitY=0.5;exitDx=0;exitDy=0;entryX=0;entryY=0.5;entryDx=0;entryDy=0;" parent="1" source="SxJLtVNwrpAvZ2XM1vWD-28" target="SxJLtVNwrpAvZ2XM1vWD-4" edge="1">
          <mxGeometry relative="1" as="geometry">
            <Array as="points">
              <mxPoint x="800" y="245" />
              <mxPoint x="800" y="80" />
              <mxPoint x="120" y="80" />
              <mxPoint x="120" y="245" />
            </Array>
          </mxGeometry>
        </mxCell>
        <mxCell id="SxJLtVNwrpAvZ2XM1vWD-95" style="edgeStyle=orthogonalEdgeStyle;rounded=0;orthogonalLoop=1;jettySize=auto;html=1;exitX=0;exitY=0.5;exitDx=0;exitDy=0;entryX=0;entryY=0.5;entryDx=0;entryDy=0;" parent="1" source="SxJLtVNwrpAvZ2XM1vWD-15" target="SxJLtVNwrpAvZ2XM1vWD-5" edge="1">
          <mxGeometry relative="1" as="geometry">
            <Array as="points">
              <mxPoint x="480" y="275" />
              <mxPoint x="480" y="120" />
              <mxPoint x="160" y="120" />
              <mxPoint x="160" y="275" />
            </Array>
          </mxGeometry>
        </mxCell>
        <mxCell id="SxJLtVNwrpAvZ2XM1vWD-96" style="edgeStyle=orthogonalEdgeStyle;rounded=0;orthogonalLoop=1;jettySize=auto;html=1;exitX=0;exitY=0.5;exitDx=0;exitDy=0;entryX=0;entryY=0.5;entryDx=0;entryDy=0;" parent="1" source="SxJLtVNwrpAvZ2XM1vWD-29" target="SxJLtVNwrpAvZ2XM1vWD-5" edge="1">
          <mxGeometry relative="1" as="geometry">
            <Array as="points">
              <mxPoint x="760" y="275" />
              <mxPoint x="760" y="120" />
              <mxPoint x="160" y="120" />
              <mxPoint x="160" y="275" />
            </Array>
          </mxGeometry>
        </mxCell>
        <mxCell id="SxJLtVNwrpAvZ2XM1vWD-67" style="edgeStyle=orthogonalEdgeStyle;rounded=0;orthogonalLoop=1;jettySize=auto;html=1;exitX=1;exitY=0.5;exitDx=0;exitDy=0;entryX=0;entryY=0.5;entryDx=0;entryDy=0;" parent="1" source="SxJLtVNwrpAvZ2XM1vWD-35" target="SxJLtVNwrpAvZ2XM1vWD-9" edge="1">
          <mxGeometry relative="1" as="geometry">
            <Array as="points">
              <mxPoint x="1040" y="425" />
              <mxPoint x="1040" y="600" />
              <mxPoint x="200" y="600" />
              <mxPoint x="200" y="395" />
            </Array>
          </mxGeometry>
        </mxCell>
        <mxCell id="SxJLtVNwrpAvZ2XM1vWD-66" style="edgeStyle=orthogonalEdgeStyle;rounded=0;orthogonalLoop=1;jettySize=auto;html=1;exitX=1;exitY=0.5;exitDx=0;exitDy=0;entryX=0;entryY=0.5;entryDx=0;entryDy=0;" parent="1" source="SxJLtVNwrpAvZ2XM1vWD-26" target="SxJLtVNwrpAvZ2XM1vWD-30" edge="1">
          <mxGeometry relative="1" as="geometry">
            <Array as="points">
              <mxPoint x="760" y="455" />
              <mxPoint x="760" y="335" />
            </Array>
          </mxGeometry>
        </mxCell>
        <mxCell id="SxJLtVNwrpAvZ2XM1vWD-65" style="edgeStyle=orthogonalEdgeStyle;rounded=0;orthogonalLoop=1;jettySize=auto;html=1;exitX=1;exitY=0.5;exitDx=0;exitDy=0;entryX=0;entryY=0.5;entryDx=0;entryDy=0;" parent="1" source="SxJLtVNwrpAvZ2XM1vWD-8" target="SxJLtVNwrpAvZ2XM1vWD-24" edge="1">
          <mxGeometry relative="1" as="geometry">
            <Array as="points">
              <mxPoint x="520" y="425" />
              <mxPoint x="520" y="425" />
            </Array>
          </mxGeometry>
        </mxCell>
        <mxCell id="SxJLtVNwrpAvZ2XM1vWD-60" style="edgeStyle=orthogonalEdgeStyle;rounded=0;orthogonalLoop=1;jettySize=auto;html=1;exitX=0;exitY=0.5;exitDx=0;exitDy=0;entryX=0.15;entryY=1;entryDx=0;entryDy=0;entryPerimeter=0;endArrow=none;startFill=0;" parent="1" source="SxJLtVNwrpAvZ2XM1vWD-21" target="DL78E8KKgz5CMaSvNPzL-183" edge="1">
          <mxGeometry relative="1" as="geometry" />
        </mxCell>
        <mxCell id="SxJLtVNwrpAvZ2XM1vWD-61" style="edgeStyle=orthogonalEdgeStyle;rounded=0;orthogonalLoop=1;jettySize=auto;html=1;exitX=0;exitY=0.5;exitDx=0;exitDy=0;entryX=0.5;entryY=1;entryDx=0;entryDy=0;entryPerimeter=0;endArrow=none;startFill=0;" parent="1" source="SxJLtVNwrpAvZ2XM1vWD-22" target="DL78E8KKgz5CMaSvNPzL-183" edge="1">
          <mxGeometry relative="1" as="geometry" />
        </mxCell>
        <mxCell id="SxJLtVNwrpAvZ2XM1vWD-62" style="edgeStyle=orthogonalEdgeStyle;rounded=0;orthogonalLoop=1;jettySize=auto;html=1;exitX=0;exitY=0.5;exitDx=0;exitDy=0;entryX=0.85;entryY=1;entryDx=0;entryDy=0;entryPerimeter=0;endArrow=none;startFill=0;" parent="1" source="SxJLtVNwrpAvZ2XM1vWD-23" target="DL78E8KKgz5CMaSvNPzL-183" edge="1">
          <mxGeometry relative="1" as="geometry" />
        </mxCell>
        <mxCell id="SxJLtVNwrpAvZ2XM1vWD-64" style="edgeStyle=orthogonalEdgeStyle;rounded=0;orthogonalLoop=1;jettySize=auto;html=1;exitX=0.5;exitY=0;exitDx=0;exitDy=0;exitPerimeter=0;endArrow=dash;startFill=1;startArrow=classic;dashed=1;endFill=0;" parent="1" source="DL78E8KKgz5CMaSvNPzL-183" edge="1">
          <mxGeometry relative="1" as="geometry">
            <mxPoint x="40" y="480" as="targetPoint" />
            <Array as="points">
              <mxPoint x="440" y="335" />
              <mxPoint x="440" y="480" />
            </Array>
          </mxGeometry>
        </mxCell>
        <mxCell id="DL78E8KKgz5CMaSvNPzL-183" value="" style="verticalLabelPosition=middle;verticalAlign=middle;html=1;shape=trapezoid;perimeter=trapezoidPerimeter;whiteSpace=wrap;size=0.23;arcSize=10;flipV=1;labelPosition=center;align=center;rotation=90;points=[[0,0,0,0,0],[0,0.25,0,0,0],[0,0.5,0,0,0],[0,0.75,0,0,0],[0,1,0,0,0],[0.15,1,0,0,0],[0.25,1,0,0,0],[0.5,0,0,0,0],[0.5,1,0,0,0],[0.75,1,0,0,0],[0.85,1,0,0,0],[1,0,0,0,0],[1,0.25,0,0,0],[1,0.5,0,0,0],[1,0.75,0,0,0],[1,1,0,0,0]];" parent="1" vertex="1">
          <mxGeometry x="440" y="331.25" width="87.5" height="7.5" as="geometry" />
        </mxCell>
        <mxCell id="SxJLtVNwrpAvZ2XM1vWD-3" value="state_ctrlr" style="swimlane;fontStyle=1;childLayout=stackLayout;horizontal=1;startSize=30;horizontalStack=0;resizeParent=1;resizeParentMax=0;resizeLast=0;collapsible=1;marginBottom=0;whiteSpace=wrap;html=1;strokeWidth=2;align=center;fillColor=#E6E6E6;" parent="1" vertex="1">
          <mxGeometry x="240" y="200" width="120" height="240" as="geometry" />
        </mxCell>
        <mxCell id="SxJLtVNwrpAvZ2XM1vWD-73" style="edgeStyle=orthogonalEdgeStyle;rounded=0;orthogonalLoop=1;jettySize=auto;html=1;exitX=0;exitY=0.5;exitDx=0;exitDy=0;endArrow=none;startFill=0;startArrow=none;endFill=1;" parent="SxJLtVNwrpAvZ2XM1vWD-3" source="SxJLtVNwrpAvZ2XM1vWD-4" edge="1">
          <mxGeometry relative="1" as="geometry">
            <mxPoint x="-200" y="45" as="targetPoint" />
          </mxGeometry>
        </mxCell>
        <mxCell id="SxJLtVNwrpAvZ2XM1vWD-72" style="edgeStyle=orthogonalEdgeStyle;rounded=0;orthogonalLoop=1;jettySize=auto;html=1;exitX=0;exitY=0.5;exitDx=0;exitDy=0;endArrow=none;startFill=0;" parent="SxJLtVNwrpAvZ2XM1vWD-3" source="SxJLtVNwrpAvZ2XM1vWD-5" edge="1">
          <mxGeometry relative="1" as="geometry">
            <mxPoint x="-200" y="75" as="targetPoint" />
          </mxGeometry>
        </mxCell>
        <mxCell id="SxJLtVNwrpAvZ2XM1vWD-71" style="edgeStyle=orthogonalEdgeStyle;rounded=0;orthogonalLoop=1;jettySize=auto;html=1;exitX=0;exitY=0.5;exitDx=0;exitDy=0;endArrow=none;startFill=0;" parent="SxJLtVNwrpAvZ2XM1vWD-3" source="SxJLtVNwrpAvZ2XM1vWD-6" edge="1">
          <mxGeometry relative="1" as="geometry">
            <mxPoint x="-200" y="105" as="targetPoint" />
          </mxGeometry>
        </mxCell>
        <mxCell id="SxJLtVNwrpAvZ2XM1vWD-70" style="edgeStyle=orthogonalEdgeStyle;rounded=0;orthogonalLoop=1;jettySize=auto;html=1;exitX=0;exitY=0.5;exitDx=0;exitDy=0;endArrow=none;startFill=0;" parent="SxJLtVNwrpAvZ2XM1vWD-3" source="SxJLtVNwrpAvZ2XM1vWD-11" edge="1">
          <mxGeometry relative="1" as="geometry">
            <mxPoint x="-200" y="135" as="targetPoint" />
          </mxGeometry>
        </mxCell>
        <mxCell id="SxJLtVNwrpAvZ2XM1vWD-69" style="edgeStyle=orthogonalEdgeStyle;rounded=0;orthogonalLoop=1;jettySize=auto;html=1;exitX=0;exitY=0.5;exitDx=0;exitDy=0;endArrow=none;startFill=0;" parent="SxJLtVNwrpAvZ2XM1vWD-3" source="SxJLtVNwrpAvZ2XM1vWD-10" edge="1">
          <mxGeometry relative="1" as="geometry">
            <mxPoint x="-200" y="165" as="targetPoint" />
          </mxGeometry>
        </mxCell>
        <mxCell id="SxJLtVNwrpAvZ2XM1vWD-36" style="edgeStyle=orthogonalEdgeStyle;rounded=0;orthogonalLoop=1;jettySize=auto;html=1;endArrow=none;startFill=1;startArrow=classic;strokeColor=#0000FF;" parent="SxJLtVNwrpAvZ2XM1vWD-3" source="SxJLtVNwrpAvZ2XM1vWD-4" edge="1">
          <mxGeometry relative="1" as="geometry">
            <mxPoint x="-40" y="45" as="targetPoint" />
          </mxGeometry>
        </mxCell>
        <mxCell id="SxJLtVNwrpAvZ2XM1vWD-4" value="CLK" style="text;strokeColor=none;fillColor=none;align=center;verticalAlign=middle;spacingLeft=4;spacingRight=4;overflow=hidden;points=[[0,0.5],[1,0.5]];portConstraint=eastwest;rotatable=0;whiteSpace=wrap;html=1;" parent="SxJLtVNwrpAvZ2XM1vWD-3" vertex="1">
          <mxGeometry y="30" width="120" height="30" as="geometry" />
        </mxCell>
        <mxCell id="SxJLtVNwrpAvZ2XM1vWD-37" style="edgeStyle=orthogonalEdgeStyle;rounded=0;orthogonalLoop=1;jettySize=auto;html=1;endArrow=none;startFill=1;startArrow=classic;strokeColor=#0000FF;" parent="SxJLtVNwrpAvZ2XM1vWD-3" source="SxJLtVNwrpAvZ2XM1vWD-5" edge="1">
          <mxGeometry relative="1" as="geometry">
            <mxPoint x="-40" y="75" as="targetPoint" />
          </mxGeometry>
        </mxCell>
        <mxCell id="SxJLtVNwrpAvZ2XM1vWD-5" value="RST" style="text;strokeColor=none;fillColor=none;align=center;verticalAlign=middle;spacingLeft=4;spacingRight=4;overflow=hidden;points=[[0,0.5],[1,0.5]];portConstraint=eastwest;rotatable=0;whiteSpace=wrap;html=1;" parent="SxJLtVNwrpAvZ2XM1vWD-3" vertex="1">
          <mxGeometry y="60" width="120" height="30" as="geometry" />
        </mxCell>
        <mxCell id="SxJLtVNwrpAvZ2XM1vWD-38" style="edgeStyle=orthogonalEdgeStyle;rounded=0;orthogonalLoop=1;jettySize=auto;html=1;endArrow=none;startFill=1;startArrow=classic;strokeColor=#0000FF;" parent="SxJLtVNwrpAvZ2XM1vWD-3" source="SxJLtVNwrpAvZ2XM1vWD-6" edge="1">
          <mxGeometry relative="1" as="geometry">
            <mxPoint x="-40" y="105" as="targetPoint" />
          </mxGeometry>
        </mxCell>
        <mxCell id="SxJLtVNwrpAvZ2XM1vWD-6" value="EN" style="text;strokeColor=none;fillColor=none;align=center;verticalAlign=middle;spacingLeft=4;spacingRight=4;overflow=hidden;points=[[0,0.5],[1,0.5]];portConstraint=eastwest;rotatable=0;whiteSpace=wrap;html=1;" parent="SxJLtVNwrpAvZ2XM1vWD-3" vertex="1">
          <mxGeometry y="90" width="120" height="30" as="geometry" />
        </mxCell>
        <mxCell id="SxJLtVNwrpAvZ2XM1vWD-39" style="edgeStyle=orthogonalEdgeStyle;rounded=0;orthogonalLoop=1;jettySize=auto;html=1;endArrow=dash;startFill=1;startArrow=classic;strokeColor=#0000FF;endFill=0;" parent="SxJLtVNwrpAvZ2XM1vWD-3" source="SxJLtVNwrpAvZ2XM1vWD-11" edge="1">
          <mxGeometry relative="1" as="geometry">
            <mxPoint x="-40" y="135" as="targetPoint" />
          </mxGeometry>
        </mxCell>
        <mxCell id="SxJLtVNwrpAvZ2XM1vWD-11" value="N_ADDR" style="text;strokeColor=none;fillColor=none;align=center;verticalAlign=middle;spacingLeft=4;spacingRight=4;overflow=hidden;points=[[0,0.5],[1,0.5]];portConstraint=eastwest;rotatable=0;whiteSpace=wrap;html=1;" parent="SxJLtVNwrpAvZ2XM1vWD-3" vertex="1">
          <mxGeometry y="120" width="120" height="30" as="geometry" />
        </mxCell>
        <mxCell id="SxJLtVNwrpAvZ2XM1vWD-40" style="edgeStyle=orthogonalEdgeStyle;rounded=0;orthogonalLoop=1;jettySize=auto;html=1;endArrow=none;startFill=1;startArrow=classic;strokeColor=#0000FF;" parent="SxJLtVNwrpAvZ2XM1vWD-3" source="SxJLtVNwrpAvZ2XM1vWD-10" edge="1">
          <mxGeometry relative="1" as="geometry">
            <mxPoint x="-40" y="165" as="targetPoint" />
          </mxGeometry>
        </mxCell>
        <mxCell id="SxJLtVNwrpAvZ2XM1vWD-10" value="CYC_SYNC" style="text;strokeColor=none;fillColor=none;align=center;verticalAlign=middle;spacingLeft=4;spacingRight=4;overflow=hidden;points=[[0,0.5],[1,0.5]];portConstraint=eastwest;rotatable=0;whiteSpace=wrap;html=1;" parent="SxJLtVNwrpAvZ2XM1vWD-3" vertex="1">
          <mxGeometry y="150" width="120" height="30" as="geometry" />
        </mxCell>
        <mxCell id="SxJLtVNwrpAvZ2XM1vWD-41" style="edgeStyle=orthogonalEdgeStyle;rounded=0;orthogonalLoop=1;jettySize=auto;html=1;endArrow=none;startFill=1;startArrow=classic;strokeColor=#0000FF;" parent="SxJLtVNwrpAvZ2XM1vWD-3" source="SxJLtVNwrpAvZ2XM1vWD-9" edge="1">
          <mxGeometry relative="1" as="geometry">
            <mxPoint x="-40" y="195" as="targetPoint" />
          </mxGeometry>
        </mxCell>
        <mxCell id="SxJLtVNwrpAvZ2XM1vWD-9" value="CNT_END" style="text;strokeColor=none;fillColor=none;align=center;verticalAlign=middle;spacingLeft=4;spacingRight=4;overflow=hidden;points=[[0,0.5],[1,0.5]];portConstraint=eastwest;rotatable=0;whiteSpace=wrap;html=1;" parent="SxJLtVNwrpAvZ2XM1vWD-3" vertex="1">
          <mxGeometry y="180" width="120" height="30" as="geometry" />
        </mxCell>
        <mxCell id="SxJLtVNwrpAvZ2XM1vWD-42" style="edgeStyle=orthogonalEdgeStyle;rounded=0;orthogonalLoop=1;jettySize=auto;html=1;strokeColor=#FF0000;startArrow=dash;startFill=0;" parent="SxJLtVNwrpAvZ2XM1vWD-3" source="SxJLtVNwrpAvZ2XM1vWD-8" edge="1">
          <mxGeometry relative="1" as="geometry">
            <mxPoint x="160" y="225" as="targetPoint" />
          </mxGeometry>
        </mxCell>
        <mxCell id="SxJLtVNwrpAvZ2XM1vWD-8" value="RD_ADDR" style="text;strokeColor=none;fillColor=none;align=center;verticalAlign=middle;spacingLeft=4;spacingRight=4;overflow=hidden;points=[[0,0.5],[1,0.5]];portConstraint=eastwest;rotatable=0;whiteSpace=wrap;html=1;" parent="SxJLtVNwrpAvZ2XM1vWD-3" vertex="1">
          <mxGeometry y="210" width="120" height="30" as="geometry" />
        </mxCell>
        <mxCell id="SxJLtVNwrpAvZ2XM1vWD-13" value="pwm_dp_mem" style="swimlane;fontStyle=1;childLayout=stackLayout;horizontal=1;startSize=30;horizontalStack=0;resizeParent=1;resizeParentMax=0;resizeLast=0;collapsible=1;marginBottom=0;whiteSpace=wrap;html=1;strokeWidth=2;align=center;fillColor=#E6E6E6;" parent="1" vertex="1">
          <mxGeometry x="560" y="200" width="120" height="270" as="geometry" />
        </mxCell>
        <mxCell id="SxJLtVNwrpAvZ2XM1vWD-43" style="edgeStyle=orthogonalEdgeStyle;rounded=0;orthogonalLoop=1;jettySize=auto;html=1;endArrow=none;startFill=1;startArrow=classic;strokeColor=#0000FF;" parent="SxJLtVNwrpAvZ2XM1vWD-13" source="SxJLtVNwrpAvZ2XM1vWD-14" edge="1">
          <mxGeometry relative="1" as="geometry">
            <mxPoint x="-40" y="45" as="targetPoint" />
          </mxGeometry>
        </mxCell>
        <mxCell id="SxJLtVNwrpAvZ2XM1vWD-14" value="CLK" style="text;strokeColor=none;fillColor=none;align=center;verticalAlign=middle;spacingLeft=4;spacingRight=4;overflow=hidden;points=[[0,0.5],[1,0.5]];portConstraint=eastwest;rotatable=0;whiteSpace=wrap;html=1;" parent="SxJLtVNwrpAvZ2XM1vWD-13" vertex="1">
          <mxGeometry y="30" width="120" height="30" as="geometry" />
        </mxCell>
        <mxCell id="SxJLtVNwrpAvZ2XM1vWD-44" style="edgeStyle=orthogonalEdgeStyle;rounded=0;orthogonalLoop=1;jettySize=auto;html=1;endArrow=none;startFill=1;startArrow=classic;strokeColor=#0000FF;" parent="SxJLtVNwrpAvZ2XM1vWD-13" source="SxJLtVNwrpAvZ2XM1vWD-15" edge="1">
          <mxGeometry relative="1" as="geometry">
            <mxPoint x="-40" y="75" as="targetPoint" />
          </mxGeometry>
        </mxCell>
        <mxCell id="SxJLtVNwrpAvZ2XM1vWD-15" value="RST" style="text;strokeColor=none;fillColor=none;align=center;verticalAlign=middle;spacingLeft=4;spacingRight=4;overflow=hidden;points=[[0,0.5],[1,0.5]];portConstraint=eastwest;rotatable=0;whiteSpace=wrap;html=1;" parent="SxJLtVNwrpAvZ2XM1vWD-13" vertex="1">
          <mxGeometry y="60" width="120" height="30" as="geometry" />
        </mxCell>
        <mxCell id="SxJLtVNwrpAvZ2XM1vWD-45" style="edgeStyle=orthogonalEdgeStyle;rounded=0;orthogonalLoop=1;jettySize=auto;html=1;endArrow=none;startFill=1;startArrow=classic;strokeColor=#0000FF;" parent="SxJLtVNwrpAvZ2XM1vWD-13" source="SxJLtVNwrpAvZ2XM1vWD-21" edge="1">
          <mxGeometry relative="1" as="geometry">
            <mxPoint x="-40" y="105" as="targetPoint" />
          </mxGeometry>
        </mxCell>
        <mxCell id="SxJLtVNwrpAvZ2XM1vWD-21" value="(WR_EN)" style="text;strokeColor=none;fillColor=none;align=center;verticalAlign=middle;spacingLeft=4;spacingRight=4;overflow=hidden;points=[[0,0.5],[1,0.5]];portConstraint=eastwest;rotatable=0;whiteSpace=wrap;html=1;" parent="SxJLtVNwrpAvZ2XM1vWD-13" vertex="1">
          <mxGeometry y="90" width="120" height="30" as="geometry" />
        </mxCell>
        <mxCell id="SxJLtVNwrpAvZ2XM1vWD-46" style="edgeStyle=orthogonalEdgeStyle;rounded=0;orthogonalLoop=1;jettySize=auto;html=1;endArrow=dash;startFill=1;startArrow=classic;strokeColor=#0000FF;endFill=0;" parent="SxJLtVNwrpAvZ2XM1vWD-13" source="SxJLtVNwrpAvZ2XM1vWD-22" edge="1">
          <mxGeometry relative="1" as="geometry">
            <mxPoint x="-40" y="135" as="targetPoint" />
          </mxGeometry>
        </mxCell>
        <mxCell id="SxJLtVNwrpAvZ2XM1vWD-22" value="(WR_ADDR)" style="text;strokeColor=none;fillColor=none;align=center;verticalAlign=middle;spacingLeft=4;spacingRight=4;overflow=hidden;points=[[0,0.5],[1,0.5]];portConstraint=eastwest;rotatable=0;whiteSpace=wrap;html=1;" parent="SxJLtVNwrpAvZ2XM1vWD-13" vertex="1">
          <mxGeometry y="120" width="120" height="30" as="geometry" />
        </mxCell>
        <mxCell id="SxJLtVNwrpAvZ2XM1vWD-47" style="edgeStyle=orthogonalEdgeStyle;rounded=0;orthogonalLoop=1;jettySize=auto;html=1;endArrow=dash;startFill=1;startArrow=classic;strokeColor=#0000FF;endFill=0;" parent="SxJLtVNwrpAvZ2XM1vWD-13" source="SxJLtVNwrpAvZ2XM1vWD-23" edge="1">
          <mxGeometry relative="1" as="geometry">
            <mxPoint x="-40" y="165" as="targetPoint" />
          </mxGeometry>
        </mxCell>
        <mxCell id="SxJLtVNwrpAvZ2XM1vWD-23" value="(WR_DATA)" style="text;strokeColor=none;fillColor=none;align=center;verticalAlign=middle;spacingLeft=4;spacingRight=4;overflow=hidden;points=[[0,0.5],[1,0.5]];portConstraint=eastwest;rotatable=0;whiteSpace=wrap;html=1;" parent="SxJLtVNwrpAvZ2XM1vWD-13" vertex="1">
          <mxGeometry y="150" width="120" height="30" as="geometry" />
        </mxCell>
        <mxCell id="SxJLtVNwrpAvZ2XM1vWD-49" style="edgeStyle=orthogonalEdgeStyle;rounded=0;orthogonalLoop=1;jettySize=auto;html=1;endArrow=dash;startFill=1;startArrow=classic;strokeColor=#0000FF;endFill=0;" parent="SxJLtVNwrpAvZ2XM1vWD-13" source="SxJLtVNwrpAvZ2XM1vWD-24" edge="1">
          <mxGeometry relative="1" as="geometry">
            <mxPoint x="-40" y="225" as="targetPoint" />
          </mxGeometry>
        </mxCell>
        <mxCell id="SxJLtVNwrpAvZ2XM1vWD-50" style="edgeStyle=orthogonalEdgeStyle;rounded=0;orthogonalLoop=1;jettySize=auto;html=1;strokeColor=#FF0000;startArrow=dash;startFill=0;" parent="SxJLtVNwrpAvZ2XM1vWD-13" source="SxJLtVNwrpAvZ2XM1vWD-26" edge="1">
          <mxGeometry relative="1" as="geometry">
            <mxPoint x="160" y="255" as="targetPoint" />
          </mxGeometry>
        </mxCell>
        <mxCell id="6HlnNBoYdWgncvJoV9WV-6" style="edgeStyle=orthogonalEdgeStyle;rounded=0;orthogonalLoop=1;jettySize=auto;html=1;exitX=0;exitY=0.5;exitDx=0;exitDy=0;strokeColor=#0000FF;endArrow=none;endFill=0;startArrow=classic;startFill=1;" parent="SxJLtVNwrpAvZ2XM1vWD-13" source="6HlnNBoYdWgncvJoV9WV-3" edge="1">
          <mxGeometry relative="1" as="geometry">
            <mxPoint x="-40" y="195.04761904761904" as="targetPoint" />
          </mxGeometry>
        </mxCell>
        <mxCell id="6HlnNBoYdWgncvJoV9WV-3" value="CYC_SYNC" style="text;strokeColor=none;fillColor=none;align=center;verticalAlign=middle;spacingLeft=4;spacingRight=4;overflow=hidden;points=[[0,0.5],[1,0.5]];portConstraint=eastwest;rotatable=0;whiteSpace=wrap;html=1;" parent="SxJLtVNwrpAvZ2XM1vWD-13" vertex="1">
          <mxGeometry y="180" width="120" height="30" as="geometry" />
        </mxCell>
        <mxCell id="SxJLtVNwrpAvZ2XM1vWD-24" value="RD_ADDR" style="text;strokeColor=none;fillColor=none;align=center;verticalAlign=middle;spacingLeft=4;spacingRight=4;overflow=hidden;points=[[0,0.5],[1,0.5]];portConstraint=eastwest;rotatable=0;whiteSpace=wrap;html=1;" parent="SxJLtVNwrpAvZ2XM1vWD-13" vertex="1">
          <mxGeometry y="210" width="120" height="30" as="geometry" />
        </mxCell>
        <mxCell id="SxJLtVNwrpAvZ2XM1vWD-26" value="RD_DATA" style="text;strokeColor=none;fillColor=none;align=center;verticalAlign=middle;spacingLeft=4;spacingRight=4;overflow=hidden;points=[[0,0.5],[1,0.5]];portConstraint=eastwest;rotatable=0;whiteSpace=wrap;html=1;" parent="SxJLtVNwrpAvZ2XM1vWD-13" vertex="1">
          <mxGeometry y="240" width="120" height="30" as="geometry" />
        </mxCell>
        <mxCell id="SxJLtVNwrpAvZ2XM1vWD-27" value="pwm_counter" style="swimlane;fontStyle=1;childLayout=stackLayout;horizontal=1;startSize=30;horizontalStack=0;resizeParent=1;resizeParentMax=0;resizeLast=0;collapsible=1;marginBottom=0;whiteSpace=wrap;html=1;strokeWidth=2;align=center;fillColor=#E6E6E6;" parent="1" vertex="1">
          <mxGeometry x="840.06" y="200" width="120" height="240" as="geometry" />
        </mxCell>
        <mxCell id="SxJLtVNwrpAvZ2XM1vWD-79" style="edgeStyle=orthogonalEdgeStyle;rounded=0;orthogonalLoop=1;jettySize=auto;html=1;exitX=1;exitY=0.5;exitDx=0;exitDy=0;endArrow=none;startFill=0;" parent="SxJLtVNwrpAvZ2XM1vWD-27" source="SxJLtVNwrpAvZ2XM1vWD-34" edge="1">
          <mxGeometry relative="1" as="geometry">
            <mxPoint x="279.94000000000005" y="195" as="targetPoint" />
          </mxGeometry>
        </mxCell>
        <mxCell id="SxJLtVNwrpAvZ2XM1vWD-68" style="edgeStyle=orthogonalEdgeStyle;rounded=0;orthogonalLoop=1;jettySize=auto;html=1;exitX=0;exitY=0.5;exitDx=0;exitDy=0;endArrow=none;startFill=0;" parent="SxJLtVNwrpAvZ2XM1vWD-27" source="SxJLtVNwrpAvZ2XM1vWD-56" edge="1">
          <mxGeometry relative="1" as="geometry">
            <mxPoint x="-800.06" y="360" as="targetPoint" />
            <Array as="points">
              <mxPoint x="-40" y="165" />
              <mxPoint x="-40" y="360" />
            </Array>
          </mxGeometry>
        </mxCell>
        <mxCell id="SxJLtVNwrpAvZ2XM1vWD-51" style="edgeStyle=orthogonalEdgeStyle;rounded=0;orthogonalLoop=1;jettySize=auto;html=1;endArrow=none;startFill=1;startArrow=classic;strokeColor=#0000FF;" parent="SxJLtVNwrpAvZ2XM1vWD-27" source="SxJLtVNwrpAvZ2XM1vWD-28" edge="1">
          <mxGeometry relative="1" as="geometry">
            <mxPoint x="-40" y="45" as="targetPoint" />
          </mxGeometry>
        </mxCell>
        <mxCell id="SxJLtVNwrpAvZ2XM1vWD-28" value="CLK" style="text;strokeColor=none;fillColor=none;align=center;verticalAlign=middle;spacingLeft=4;spacingRight=4;overflow=hidden;points=[[0,0.5],[1,0.5]];portConstraint=eastwest;rotatable=0;whiteSpace=wrap;html=1;" parent="SxJLtVNwrpAvZ2XM1vWD-27" vertex="1">
          <mxGeometry y="30" width="120" height="30" as="geometry" />
        </mxCell>
        <mxCell id="SxJLtVNwrpAvZ2XM1vWD-52" style="edgeStyle=orthogonalEdgeStyle;rounded=0;orthogonalLoop=1;jettySize=auto;html=1;endArrow=none;startFill=1;startArrow=classic;strokeColor=#0000FF;" parent="SxJLtVNwrpAvZ2XM1vWD-27" source="SxJLtVNwrpAvZ2XM1vWD-29" edge="1">
          <mxGeometry relative="1" as="geometry">
            <mxPoint x="-40" y="75" as="targetPoint" />
          </mxGeometry>
        </mxCell>
        <mxCell id="SxJLtVNwrpAvZ2XM1vWD-29" value="RST" style="text;strokeColor=none;fillColor=none;align=center;verticalAlign=middle;spacingLeft=4;spacingRight=4;overflow=hidden;points=[[0,0.5],[1,0.5]];portConstraint=eastwest;rotatable=0;whiteSpace=wrap;html=1;" parent="SxJLtVNwrpAvZ2XM1vWD-27" vertex="1">
          <mxGeometry y="60" width="120" height="30" as="geometry" />
        </mxCell>
        <mxCell id="SxJLtVNwrpAvZ2XM1vWD-53" style="edgeStyle=orthogonalEdgeStyle;rounded=0;orthogonalLoop=1;jettySize=auto;html=1;endArrow=dash;startFill=1;startArrow=classic;strokeColor=#0000FF;endFill=0;" parent="SxJLtVNwrpAvZ2XM1vWD-27" source="SxJLtVNwrpAvZ2XM1vWD-30" edge="1">
          <mxGeometry relative="1" as="geometry">
            <mxPoint x="-40.059999999999945" y="135" as="targetPoint" />
          </mxGeometry>
        </mxCell>
        <mxCell id="Adk1zG7lPjc5x8-QMkRp-3" style="edgeStyle=orthogonalEdgeStyle;rounded=0;orthogonalLoop=1;jettySize=auto;html=1;exitX=0;exitY=0.5;exitDx=0;exitDy=0;endArrow=none;startFill=1;startArrow=classic;strokeColor=#0000FF;" edge="1" parent="SxJLtVNwrpAvZ2XM1vWD-27" source="Adk1zG7lPjc5x8-QMkRp-1">
          <mxGeometry relative="1" as="geometry">
            <mxPoint x="-40.059999999999945" y="105.33333333333337" as="targetPoint" />
          </mxGeometry>
        </mxCell>
        <mxCell id="Adk1zG7lPjc5x8-QMkRp-1" value="EN" style="text;strokeColor=none;fillColor=none;align=center;verticalAlign=middle;spacingLeft=4;spacingRight=4;overflow=hidden;points=[[0,0.5],[1,0.5]];portConstraint=eastwest;rotatable=0;whiteSpace=wrap;html=1;" vertex="1" parent="SxJLtVNwrpAvZ2XM1vWD-27">
          <mxGeometry y="90" width="120" height="30" as="geometry" />
        </mxCell>
        <mxCell id="SxJLtVNwrpAvZ2XM1vWD-30" value="CNT_LEN" style="text;strokeColor=none;fillColor=none;align=center;verticalAlign=middle;spacingLeft=4;spacingRight=4;overflow=hidden;points=[[0,0.5],[1,0.5]];portConstraint=eastwest;rotatable=0;whiteSpace=wrap;html=1;" parent="SxJLtVNwrpAvZ2XM1vWD-27" vertex="1">
          <mxGeometry y="120" width="120" height="30" as="geometry" />
        </mxCell>
        <mxCell id="SxJLtVNwrpAvZ2XM1vWD-57" style="edgeStyle=orthogonalEdgeStyle;rounded=0;orthogonalLoop=1;jettySize=auto;html=1;startArrow=classic;startFill=1;endArrow=none;strokeColor=#0000FF;" parent="SxJLtVNwrpAvZ2XM1vWD-27" source="SxJLtVNwrpAvZ2XM1vWD-56" edge="1">
          <mxGeometry relative="1" as="geometry">
            <mxPoint x="-40.059999999999945" y="165" as="targetPoint" />
          </mxGeometry>
        </mxCell>
        <mxCell id="SxJLtVNwrpAvZ2XM1vWD-56" value="PWM_INIT" style="text;strokeColor=none;fillColor=none;align=center;verticalAlign=middle;spacingLeft=4;spacingRight=4;overflow=hidden;points=[[0,0.5],[1,0.5]];portConstraint=eastwest;rotatable=0;whiteSpace=wrap;html=1;" parent="SxJLtVNwrpAvZ2XM1vWD-27" vertex="1">
          <mxGeometry y="150" width="120" height="30" as="geometry" />
        </mxCell>
        <mxCell id="SxJLtVNwrpAvZ2XM1vWD-54" style="edgeStyle=orthogonalEdgeStyle;rounded=0;orthogonalLoop=1;jettySize=auto;html=1;strokeColor=#FF0000;" parent="SxJLtVNwrpAvZ2XM1vWD-27" source="SxJLtVNwrpAvZ2XM1vWD-34" edge="1">
          <mxGeometry relative="1" as="geometry">
            <mxPoint x="159.94000000000005" y="195" as="targetPoint" />
          </mxGeometry>
        </mxCell>
        <mxCell id="SxJLtVNwrpAvZ2XM1vWD-34" value="PWM" style="text;strokeColor=none;fillColor=none;align=center;verticalAlign=middle;spacingLeft=4;spacingRight=4;overflow=hidden;points=[[0,0.5],[1,0.5]];portConstraint=eastwest;rotatable=0;whiteSpace=wrap;html=1;" parent="SxJLtVNwrpAvZ2XM1vWD-27" vertex="1">
          <mxGeometry y="180" width="120" height="30" as="geometry" />
        </mxCell>
        <mxCell id="SxJLtVNwrpAvZ2XM1vWD-55" style="edgeStyle=orthogonalEdgeStyle;rounded=0;orthogonalLoop=1;jettySize=auto;html=1;strokeColor=#FF0000;" parent="SxJLtVNwrpAvZ2XM1vWD-27" source="SxJLtVNwrpAvZ2XM1vWD-35" edge="1">
          <mxGeometry relative="1" as="geometry">
            <mxPoint x="159.94000000000005" y="225" as="targetPoint" />
          </mxGeometry>
        </mxCell>
        <mxCell id="SxJLtVNwrpAvZ2XM1vWD-35" value="CNT_END" style="text;strokeColor=none;fillColor=none;align=center;verticalAlign=middle;spacingLeft=4;spacingRight=4;overflow=hidden;points=[[0,0.5],[1,0.5]];portConstraint=eastwest;rotatable=0;whiteSpace=wrap;html=1;" parent="SxJLtVNwrpAvZ2XM1vWD-27" vertex="1">
          <mxGeometry y="210" width="120" height="30" as="geometry" />
        </mxCell>
        <mxCell id="SxJLtVNwrpAvZ2XM1vWD-112" value="pwm_top" style="swimlane;fontStyle=1;childLayout=stackLayout;horizontal=1;startSize=30;horizontalStack=0;resizeParent=1;resizeParentMax=0;resizeLast=0;collapsible=1;marginBottom=0;whiteSpace=wrap;html=1;strokeWidth=2;align=center;fillColor=#E6E6E6;" parent="1" vertex="1">
          <mxGeometry x="880" y="760" width="120" height="270" as="geometry" />
        </mxCell>
        <mxCell id="SxJLtVNwrpAvZ2XM1vWD-118" style="edgeStyle=orthogonalEdgeStyle;rounded=0;orthogonalLoop=1;jettySize=auto;html=1;endArrow=none;startFill=1;startArrow=classic;strokeColor=#0000FF;" parent="SxJLtVNwrpAvZ2XM1vWD-112" source="SxJLtVNwrpAvZ2XM1vWD-119" edge="1">
          <mxGeometry relative="1" as="geometry">
            <mxPoint x="-40" y="45" as="targetPoint" />
          </mxGeometry>
        </mxCell>
        <mxCell id="SxJLtVNwrpAvZ2XM1vWD-119" value="CLK" style="text;strokeColor=none;fillColor=none;align=center;verticalAlign=middle;spacingLeft=4;spacingRight=4;overflow=hidden;points=[[0,0.5],[1,0.5]];portConstraint=eastwest;rotatable=0;whiteSpace=wrap;html=1;" parent="SxJLtVNwrpAvZ2XM1vWD-112" vertex="1">
          <mxGeometry y="30" width="120" height="30" as="geometry" />
        </mxCell>
        <mxCell id="SxJLtVNwrpAvZ2XM1vWD-120" style="edgeStyle=orthogonalEdgeStyle;rounded=0;orthogonalLoop=1;jettySize=auto;html=1;endArrow=none;startFill=1;startArrow=classic;strokeColor=#0000FF;" parent="SxJLtVNwrpAvZ2XM1vWD-112" source="SxJLtVNwrpAvZ2XM1vWD-121" edge="1">
          <mxGeometry relative="1" as="geometry">
            <mxPoint x="-40" y="75" as="targetPoint" />
          </mxGeometry>
        </mxCell>
        <mxCell id="SxJLtVNwrpAvZ2XM1vWD-121" value="RST" style="text;strokeColor=none;fillColor=none;align=center;verticalAlign=middle;spacingLeft=4;spacingRight=4;overflow=hidden;points=[[0,0.5],[1,0.5]];portConstraint=eastwest;rotatable=0;whiteSpace=wrap;html=1;" parent="SxJLtVNwrpAvZ2XM1vWD-112" vertex="1">
          <mxGeometry y="60" width="120" height="30" as="geometry" />
        </mxCell>
        <mxCell id="SxJLtVNwrpAvZ2XM1vWD-122" style="edgeStyle=orthogonalEdgeStyle;rounded=0;orthogonalLoop=1;jettySize=auto;html=1;endArrow=none;startFill=1;startArrow=classic;strokeColor=#0000FF;" parent="SxJLtVNwrpAvZ2XM1vWD-112" source="SxJLtVNwrpAvZ2XM1vWD-123" edge="1">
          <mxGeometry relative="1" as="geometry">
            <mxPoint x="-40" y="105" as="targetPoint" />
          </mxGeometry>
        </mxCell>
        <mxCell id="SxJLtVNwrpAvZ2XM1vWD-123" value="EN" style="text;strokeColor=none;fillColor=none;align=center;verticalAlign=middle;spacingLeft=4;spacingRight=4;overflow=hidden;points=[[0,0.5],[1,0.5]];portConstraint=eastwest;rotatable=0;whiteSpace=wrap;html=1;" parent="SxJLtVNwrpAvZ2XM1vWD-112" vertex="1">
          <mxGeometry y="90" width="120" height="30" as="geometry" />
        </mxCell>
        <mxCell id="SxJLtVNwrpAvZ2XM1vWD-124" style="edgeStyle=orthogonalEdgeStyle;rounded=0;orthogonalLoop=1;jettySize=auto;html=1;endArrow=dash;startFill=1;startArrow=classic;strokeColor=#0000FF;endFill=0;" parent="SxJLtVNwrpAvZ2XM1vWD-112" source="SxJLtVNwrpAvZ2XM1vWD-125" edge="1">
          <mxGeometry relative="1" as="geometry">
            <mxPoint x="-40" y="135" as="targetPoint" />
          </mxGeometry>
        </mxCell>
        <mxCell id="SxJLtVNwrpAvZ2XM1vWD-125" value="N_ADDR" style="text;strokeColor=none;fillColor=none;align=center;verticalAlign=middle;spacingLeft=4;spacingRight=4;overflow=hidden;points=[[0,0.5],[1,0.5]];portConstraint=eastwest;rotatable=0;whiteSpace=wrap;html=1;" parent="SxJLtVNwrpAvZ2XM1vWD-112" vertex="1">
          <mxGeometry y="120" width="120" height="30" as="geometry" />
        </mxCell>
        <mxCell id="SxJLtVNwrpAvZ2XM1vWD-126" style="edgeStyle=orthogonalEdgeStyle;rounded=0;orthogonalLoop=1;jettySize=auto;html=1;endArrow=none;startFill=1;startArrow=classic;strokeColor=#0000FF;" parent="SxJLtVNwrpAvZ2XM1vWD-112" source="SxJLtVNwrpAvZ2XM1vWD-127" edge="1">
          <mxGeometry relative="1" as="geometry">
            <mxPoint x="-40" y="165" as="targetPoint" />
          </mxGeometry>
        </mxCell>
        <mxCell id="SxJLtVNwrpAvZ2XM1vWD-127" value="CYC_SYNC" style="text;strokeColor=none;fillColor=none;align=center;verticalAlign=middle;spacingLeft=4;spacingRight=4;overflow=hidden;points=[[0,0.5],[1,0.5]];portConstraint=eastwest;rotatable=0;whiteSpace=wrap;html=1;" parent="SxJLtVNwrpAvZ2XM1vWD-112" vertex="1">
          <mxGeometry y="150" width="120" height="30" as="geometry" />
        </mxCell>
        <mxCell id="SxJLtVNwrpAvZ2XM1vWD-128" style="edgeStyle=orthogonalEdgeStyle;rounded=0;orthogonalLoop=1;jettySize=auto;html=1;endArrow=none;startFill=1;startArrow=classic;strokeColor=#0000FF;" parent="SxJLtVNwrpAvZ2XM1vWD-112" source="SxJLtVNwrpAvZ2XM1vWD-129" edge="1">
          <mxGeometry relative="1" as="geometry">
            <mxPoint x="-40" y="195" as="targetPoint" />
          </mxGeometry>
        </mxCell>
        <mxCell id="SxJLtVNwrpAvZ2XM1vWD-129" value="PWM_INIT" style="text;strokeColor=none;fillColor=none;align=center;verticalAlign=middle;spacingLeft=4;spacingRight=4;overflow=hidden;points=[[0,0.5],[1,0.5]];portConstraint=eastwest;rotatable=0;whiteSpace=wrap;html=1;" parent="SxJLtVNwrpAvZ2XM1vWD-112" vertex="1">
          <mxGeometry y="180" width="120" height="30" as="geometry" />
        </mxCell>
        <mxCell id="SxJLtVNwrpAvZ2XM1vWD-134" style="edgeStyle=orthogonalEdgeStyle;rounded=0;orthogonalLoop=1;jettySize=auto;html=1;exitX=0;exitY=0.5;exitDx=0;exitDy=0;endArrow=dash;startFill=1;startArrow=classic;strokeColor=#0000FF;endFill=0;dashed=1;" parent="SxJLtVNwrpAvZ2XM1vWD-112" source="SxJLtVNwrpAvZ2XM1vWD-131" edge="1">
          <mxGeometry relative="1" as="geometry">
            <mxPoint x="-40" y="225.22222222222217" as="targetPoint" />
          </mxGeometry>
        </mxCell>
        <mxCell id="SxJLtVNwrpAvZ2XM1vWD-131" value="&lt;i&gt;(WR_DEBUG)&lt;/i&gt;" style="text;strokeColor=none;fillColor=none;align=center;verticalAlign=middle;spacingLeft=4;spacingRight=4;overflow=hidden;points=[[0,0.5],[1,0.5]];portConstraint=eastwest;rotatable=0;whiteSpace=wrap;html=1;" parent="SxJLtVNwrpAvZ2XM1vWD-112" vertex="1">
          <mxGeometry y="210" width="120" height="30" as="geometry" />
        </mxCell>
        <mxCell id="SxJLtVNwrpAvZ2XM1vWD-133" style="edgeStyle=orthogonalEdgeStyle;rounded=0;orthogonalLoop=1;jettySize=auto;html=1;exitX=1;exitY=0.5;exitDx=0;exitDy=0;strokeColor=#FF0000;" parent="SxJLtVNwrpAvZ2XM1vWD-112" source="SxJLtVNwrpAvZ2XM1vWD-132" edge="1">
          <mxGeometry relative="1" as="geometry">
            <mxPoint x="160" y="254.80952380952363" as="targetPoint" />
          </mxGeometry>
        </mxCell>
        <mxCell id="SxJLtVNwrpAvZ2XM1vWD-132" value="PWM" style="text;strokeColor=none;fillColor=none;align=center;verticalAlign=middle;spacingLeft=4;spacingRight=4;overflow=hidden;points=[[0,0.5],[1,0.5]];portConstraint=eastwest;rotatable=0;whiteSpace=wrap;html=1;" parent="SxJLtVNwrpAvZ2XM1vWD-112" vertex="1">
          <mxGeometry y="240" width="120" height="30" as="geometry" />
        </mxCell>
        <mxCell id="SxJLtVNwrpAvZ2XM1vWD-135" value="DescripciÃ³n de las seÃ±ales" style="shape=table;startSize=40;container=1;collapsible=0;childLayout=tableLayout;strokeColor=#000000;fontSize=12;labelBackgroundColor=none;fillColor=#E6E6E6;strokeWidth=2;fontStyle=1" parent="1" vertex="1">
          <mxGeometry x="80" y="760" width="640" height="480" as="geometry" />
        </mxCell>
        <mxCell id="SxJLtVNwrpAvZ2XM1vWD-136" value="" style="shape=tableRow;horizontal=0;startSize=0;swimlaneHead=0;swimlaneBody=0;strokeColor=inherit;top=0;left=0;bottom=0;right=0;collapsible=0;dropTarget=0;fillColor=none;points=[[0,0.5],[1,0.5]];portConstraint=eastwest;fontSize=16;" parent="SxJLtVNwrpAvZ2XM1vWD-135" vertex="1">
          <mxGeometry y="40" width="640" height="44" as="geometry" />
        </mxCell>
        <mxCell id="SxJLtVNwrpAvZ2XM1vWD-137" value="SeÃ±al" style="shape=partialRectangle;html=1;whiteSpace=wrap;connectable=0;strokeColor=inherit;overflow=hidden;fillColor=none;top=0;left=0;bottom=0;right=0;pointerEvents=1;fontSize=12;fontStyle=2" parent="SxJLtVNwrpAvZ2XM1vWD-136" vertex="1">
          <mxGeometry width="80" height="44" as="geometry">
            <mxRectangle width="80" height="44" as="alternateBounds" />
          </mxGeometry>
        </mxCell>
        <mxCell id="SxJLtVNwrpAvZ2XM1vWD-138" value="DescripciÃ³n" style="shape=partialRectangle;html=1;whiteSpace=wrap;connectable=0;strokeColor=inherit;overflow=hidden;fillColor=none;top=0;left=0;bottom=0;right=0;pointerEvents=1;fontSize=12;fontStyle=2" parent="SxJLtVNwrpAvZ2XM1vWD-136" vertex="1">
          <mxGeometry x="80" width="320" height="44" as="geometry">
            <mxRectangle width="320" height="44" as="alternateBounds" />
          </mxGeometry>
        </mxCell>
        <mxCell id="SxJLtVNwrpAvZ2XM1vWD-139" value="state_ctrlr" style="shape=partialRectangle;html=1;whiteSpace=wrap;connectable=0;strokeColor=inherit;overflow=hidden;fillColor=none;top=0;left=0;bottom=0;right=0;pointerEvents=1;fontSize=12;fontStyle=2" parent="SxJLtVNwrpAvZ2XM1vWD-136" vertex="1">
          <mxGeometry x="400" width="80" height="44" as="geometry">
            <mxRectangle width="80" height="44" as="alternateBounds" />
          </mxGeometry>
        </mxCell>
        <mxCell id="SxJLtVNwrpAvZ2XM1vWD-151" value="pwm_dp_mem" style="shape=partialRectangle;html=1;whiteSpace=wrap;connectable=0;strokeColor=inherit;overflow=hidden;fillColor=none;top=0;left=0;bottom=0;right=0;pointerEvents=1;fontSize=12;fontStyle=2" parent="SxJLtVNwrpAvZ2XM1vWD-136" vertex="1">
          <mxGeometry x="480" width="80" height="44" as="geometry">
            <mxRectangle width="80" height="44" as="alternateBounds" />
          </mxGeometry>
        </mxCell>
        <mxCell id="SxJLtVNwrpAvZ2XM1vWD-148" value="pwm_counter" style="shape=partialRectangle;html=1;whiteSpace=wrap;connectable=0;strokeColor=inherit;overflow=hidden;fillColor=none;top=0;left=0;bottom=0;right=0;pointerEvents=1;fontSize=12;fontStyle=2" parent="SxJLtVNwrpAvZ2XM1vWD-136" vertex="1">
          <mxGeometry x="560" width="80" height="44" as="geometry">
            <mxRectangle width="80" height="44" as="alternateBounds" />
          </mxGeometry>
        </mxCell>
        <mxCell id="SxJLtVNwrpAvZ2XM1vWD-140" value="" style="shape=tableRow;horizontal=0;startSize=0;swimlaneHead=0;swimlaneBody=0;strokeColor=inherit;top=0;left=0;bottom=0;right=0;collapsible=0;dropTarget=0;fillColor=none;points=[[0,0.5],[1,0.5]];portConstraint=eastwest;fontSize=16;" parent="SxJLtVNwrpAvZ2XM1vWD-135" vertex="1">
          <mxGeometry y="84" width="640" height="44" as="geometry" />
        </mxCell>
        <mxCell id="SxJLtVNwrpAvZ2XM1vWD-141" value="&amp;nbsp;EN" style="shape=partialRectangle;html=1;whiteSpace=wrap;connectable=0;strokeColor=inherit;overflow=hidden;fillColor=none;top=0;left=0;bottom=0;right=0;pointerEvents=1;fontSize=12;" parent="SxJLtVNwrpAvZ2XM1vWD-140" vertex="1">
          <mxGeometry width="80" height="44" as="geometry">
            <mxRectangle width="80" height="44" as="alternateBounds" />
          </mxGeometry>
        </mxCell>
        <mxCell id="SxJLtVNwrpAvZ2XM1vWD-142" value="Enable general." style="shape=partialRectangle;html=1;whiteSpace=wrap;connectable=0;strokeColor=inherit;overflow=hidden;fillColor=none;top=0;left=0;bottom=0;right=0;pointerEvents=1;fontSize=12;" parent="SxJLtVNwrpAvZ2XM1vWD-140" vertex="1">
          <mxGeometry x="80" width="320" height="44" as="geometry">
            <mxRectangle width="320" height="44" as="alternateBounds" />
          </mxGeometry>
        </mxCell>
        <mxCell id="SxJLtVNwrpAvZ2XM1vWD-143" value="in" style="shape=partialRectangle;html=1;whiteSpace=wrap;connectable=0;strokeColor=inherit;overflow=hidden;fillColor=none;top=0;left=0;bottom=0;right=0;pointerEvents=1;fontSize=12;" parent="SxJLtVNwrpAvZ2XM1vWD-140" vertex="1">
          <mxGeometry x="400" width="80" height="44" as="geometry">
            <mxRectangle width="80" height="44" as="alternateBounds" />
          </mxGeometry>
        </mxCell>
        <mxCell id="SxJLtVNwrpAvZ2XM1vWD-152" value="-" style="shape=partialRectangle;html=1;whiteSpace=wrap;connectable=0;strokeColor=inherit;overflow=hidden;fillColor=none;top=0;left=0;bottom=0;right=0;pointerEvents=1;fontSize=12;" parent="SxJLtVNwrpAvZ2XM1vWD-140" vertex="1">
          <mxGeometry x="480" width="80" height="44" as="geometry">
            <mxRectangle width="80" height="44" as="alternateBounds" />
          </mxGeometry>
        </mxCell>
        <mxCell id="SxJLtVNwrpAvZ2XM1vWD-149" value="-" style="shape=partialRectangle;html=1;whiteSpace=wrap;connectable=0;strokeColor=inherit;overflow=hidden;fillColor=none;top=0;left=0;bottom=0;right=0;pointerEvents=1;fontSize=12;" parent="SxJLtVNwrpAvZ2XM1vWD-140" vertex="1">
          <mxGeometry x="560" width="80" height="44" as="geometry">
            <mxRectangle width="80" height="44" as="alternateBounds" />
          </mxGeometry>
        </mxCell>
        <mxCell id="SxJLtVNwrpAvZ2XM1vWD-144" value="" style="shape=tableRow;horizontal=0;startSize=0;swimlaneHead=0;swimlaneBody=0;strokeColor=inherit;top=0;left=0;bottom=0;right=0;collapsible=0;dropTarget=0;fillColor=none;points=[[0,0.5],[1,0.5]];portConstraint=eastwest;fontSize=16;" parent="SxJLtVNwrpAvZ2XM1vWD-135" vertex="1">
          <mxGeometry y="128" width="640" height="44" as="geometry" />
        </mxCell>
        <mxCell id="SxJLtVNwrpAvZ2XM1vWD-145" value="N_ADDR" style="shape=partialRectangle;html=1;whiteSpace=wrap;connectable=0;strokeColor=inherit;overflow=hidden;fillColor=none;top=0;left=0;bottom=0;right=0;pointerEvents=1;fontSize=12;" parent="SxJLtVNwrpAvZ2XM1vWD-144" vertex="1">
          <mxGeometry width="80" height="44" as="geometry">
            <mxRectangle width="80" height="44" as="alternateBounds" />
          </mxGeometry>
        </mxCell>
        <mxCell id="SxJLtVNwrpAvZ2XM1vWD-146" value="NÃºmero de direcciones de la memoria y estados que conforman un ciclo completo del PWM." style="shape=partialRectangle;html=1;whiteSpace=wrap;connectable=0;strokeColor=inherit;overflow=hidden;fillColor=none;top=0;left=0;bottom=0;right=0;pointerEvents=1;fontSize=12;" parent="SxJLtVNwrpAvZ2XM1vWD-144" vertex="1">
          <mxGeometry x="80" width="320" height="44" as="geometry">
            <mxRectangle width="320" height="44" as="alternateBounds" />
          </mxGeometry>
        </mxCell>
        <mxCell id="SxJLtVNwrpAvZ2XM1vWD-147" value="in" style="shape=partialRectangle;html=1;whiteSpace=wrap;connectable=0;strokeColor=inherit;overflow=hidden;fillColor=none;top=0;left=0;bottom=0;right=0;pointerEvents=1;fontSize=12;" parent="SxJLtVNwrpAvZ2XM1vWD-144" vertex="1">
          <mxGeometry x="400" width="80" height="44" as="geometry">
            <mxRectangle width="80" height="44" as="alternateBounds" />
          </mxGeometry>
        </mxCell>
        <mxCell id="SxJLtVNwrpAvZ2XM1vWD-153" value="-" style="shape=partialRectangle;html=1;whiteSpace=wrap;connectable=0;strokeColor=inherit;overflow=hidden;fillColor=none;top=0;left=0;bottom=0;right=0;pointerEvents=1;fontSize=12;" parent="SxJLtVNwrpAvZ2XM1vWD-144" vertex="1">
          <mxGeometry x="480" width="80" height="44" as="geometry">
            <mxRectangle width="80" height="44" as="alternateBounds" />
          </mxGeometry>
        </mxCell>
        <mxCell id="SxJLtVNwrpAvZ2XM1vWD-150" value="-" style="shape=partialRectangle;html=1;whiteSpace=wrap;connectable=0;strokeColor=inherit;overflow=hidden;fillColor=none;top=0;left=0;bottom=0;right=0;pointerEvents=1;fontSize=12;" parent="SxJLtVNwrpAvZ2XM1vWD-144" vertex="1">
          <mxGeometry x="560" width="80" height="44" as="geometry">
            <mxRectangle width="80" height="44" as="alternateBounds" />
          </mxGeometry>
        </mxCell>
        <mxCell id="SxJLtVNwrpAvZ2XM1vWD-154" style="shape=tableRow;horizontal=0;startSize=0;swimlaneHead=0;swimlaneBody=0;strokeColor=inherit;top=0;left=0;bottom=0;right=0;collapsible=0;dropTarget=0;fillColor=none;points=[[0,0.5],[1,0.5]];portConstraint=eastwest;fontSize=16;" parent="SxJLtVNwrpAvZ2XM1vWD-135" vertex="1">
          <mxGeometry y="172" width="640" height="44" as="geometry" />
        </mxCell>
        <mxCell id="SxJLtVNwrpAvZ2XM1vWD-155" value="CYC_SYNC" style="shape=partialRectangle;html=1;whiteSpace=wrap;connectable=0;strokeColor=inherit;overflow=hidden;fillColor=none;top=0;left=0;bottom=0;right=0;pointerEvents=1;fontSize=12;" parent="SxJLtVNwrpAvZ2XM1vWD-154" vertex="1">
          <mxGeometry width="80" height="44" as="geometry">
            <mxRectangle width="80" height="44" as="alternateBounds" />
          </mxGeometry>
        </mxCell>
        <mxCell id="SxJLtVNwrpAvZ2XM1vWD-156" value="SeÃ±al externa que actualiza al mismo tiempo todos los pwm_top. En la dual port memory, intercambia los valores de lectura y escritura." style="shape=partialRectangle;html=1;whiteSpace=wrap;connectable=0;strokeColor=inherit;overflow=hidden;fillColor=none;top=0;left=0;bottom=0;right=0;pointerEvents=1;fontSize=12;" parent="SxJLtVNwrpAvZ2XM1vWD-154" vertex="1">
          <mxGeometry x="80" width="320" height="44" as="geometry">
            <mxRectangle width="320" height="44" as="alternateBounds" />
          </mxGeometry>
        </mxCell>
        <mxCell id="SxJLtVNwrpAvZ2XM1vWD-157" value="in" style="shape=partialRectangle;html=1;whiteSpace=wrap;connectable=0;strokeColor=inherit;overflow=hidden;fillColor=none;top=0;left=0;bottom=0;right=0;pointerEvents=1;fontSize=12;" parent="SxJLtVNwrpAvZ2XM1vWD-154" vertex="1">
          <mxGeometry x="400" width="80" height="44" as="geometry">
            <mxRectangle width="80" height="44" as="alternateBounds" />
          </mxGeometry>
        </mxCell>
        <mxCell id="SxJLtVNwrpAvZ2XM1vWD-158" value="in" style="shape=partialRectangle;html=1;whiteSpace=wrap;connectable=0;strokeColor=inherit;overflow=hidden;fillColor=none;top=0;left=0;bottom=0;right=0;pointerEvents=1;fontSize=12;" parent="SxJLtVNwrpAvZ2XM1vWD-154" vertex="1">
          <mxGeometry x="480" width="80" height="44" as="geometry">
            <mxRectangle width="80" height="44" as="alternateBounds" />
          </mxGeometry>
        </mxCell>
        <mxCell id="SxJLtVNwrpAvZ2XM1vWD-159" value="-" style="shape=partialRectangle;html=1;whiteSpace=wrap;connectable=0;strokeColor=inherit;overflow=hidden;fillColor=none;top=0;left=0;bottom=0;right=0;pointerEvents=1;fontSize=12;" parent="SxJLtVNwrpAvZ2XM1vWD-154" vertex="1">
          <mxGeometry x="560" width="80" height="44" as="geometry">
            <mxRectangle width="80" height="44" as="alternateBounds" />
          </mxGeometry>
        </mxCell>
        <mxCell id="SxJLtVNwrpAvZ2XM1vWD-160" style="shape=tableRow;horizontal=0;startSize=0;swimlaneHead=0;swimlaneBody=0;strokeColor=inherit;top=0;left=0;bottom=0;right=0;collapsible=0;dropTarget=0;fillColor=none;points=[[0,0.5],[1,0.5]];portConstraint=eastwest;fontSize=16;" parent="SxJLtVNwrpAvZ2XM1vWD-135" vertex="1">
          <mxGeometry y="216" width="640" height="44" as="geometry" />
        </mxCell>
        <mxCell id="SxJLtVNwrpAvZ2XM1vWD-161" value="CNT_END" style="shape=partialRectangle;html=1;whiteSpace=wrap;connectable=0;strokeColor=inherit;overflow=hidden;fillColor=none;top=0;left=0;bottom=0;right=0;pointerEvents=1;fontSize=12;" parent="SxJLtVNwrpAvZ2XM1vWD-160" vertex="1">
          <mxGeometry width="80" height="44" as="geometry">
            <mxRectangle width="80" height="44" as="alternateBounds" />
          </mxGeometry>
        </mxCell>
        <mxCell id="SxJLtVNwrpAvZ2XM1vWD-162" value="Indicador de final de cuenta de cada estado dentro de un ciclo del PWM.&amp;nbsp;" style="shape=partialRectangle;html=1;whiteSpace=wrap;connectable=0;strokeColor=inherit;overflow=hidden;fillColor=none;top=0;left=0;bottom=0;right=0;pointerEvents=1;fontSize=12;" parent="SxJLtVNwrpAvZ2XM1vWD-160" vertex="1">
          <mxGeometry x="80" width="320" height="44" as="geometry">
            <mxRectangle width="320" height="44" as="alternateBounds" />
          </mxGeometry>
        </mxCell>
        <mxCell id="SxJLtVNwrpAvZ2XM1vWD-163" value="in" style="shape=partialRectangle;html=1;whiteSpace=wrap;connectable=0;strokeColor=inherit;overflow=hidden;fillColor=none;top=0;left=0;bottom=0;right=0;pointerEvents=1;fontSize=12;" parent="SxJLtVNwrpAvZ2XM1vWD-160" vertex="1">
          <mxGeometry x="400" width="80" height="44" as="geometry">
            <mxRectangle width="80" height="44" as="alternateBounds" />
          </mxGeometry>
        </mxCell>
        <mxCell id="SxJLtVNwrpAvZ2XM1vWD-164" value="-" style="shape=partialRectangle;html=1;whiteSpace=wrap;connectable=0;strokeColor=inherit;overflow=hidden;fillColor=none;top=0;left=0;bottom=0;right=0;pointerEvents=1;fontSize=12;" parent="SxJLtVNwrpAvZ2XM1vWD-160" vertex="1">
          <mxGeometry x="480" width="80" height="44" as="geometry">
            <mxRectangle width="80" height="44" as="alternateBounds" />
          </mxGeometry>
        </mxCell>
        <mxCell id="SxJLtVNwrpAvZ2XM1vWD-165" value="out" style="shape=partialRectangle;html=1;whiteSpace=wrap;connectable=0;strokeColor=inherit;overflow=hidden;fillColor=none;top=0;left=0;bottom=0;right=0;pointerEvents=1;fontSize=12;" parent="SxJLtVNwrpAvZ2XM1vWD-160" vertex="1">
          <mxGeometry x="560" width="80" height="44" as="geometry">
            <mxRectangle width="80" height="44" as="alternateBounds" />
          </mxGeometry>
        </mxCell>
        <mxCell id="SxJLtVNwrpAvZ2XM1vWD-166" style="shape=tableRow;horizontal=0;startSize=0;swimlaneHead=0;swimlaneBody=0;strokeColor=inherit;top=0;left=0;bottom=0;right=0;collapsible=0;dropTarget=0;fillColor=none;points=[[0,0.5],[1,0.5]];portConstraint=eastwest;fontSize=16;" parent="SxJLtVNwrpAvZ2XM1vWD-135" vertex="1">
          <mxGeometry y="260" width="640" height="44" as="geometry" />
        </mxCell>
        <mxCell id="SxJLtVNwrpAvZ2XM1vWD-167" value="RD_ADDR" style="shape=partialRectangle;html=1;whiteSpace=wrap;connectable=0;strokeColor=inherit;overflow=hidden;fillColor=none;top=0;left=0;bottom=0;right=0;pointerEvents=1;fontSize=12;" parent="SxJLtVNwrpAvZ2XM1vWD-166" vertex="1">
          <mxGeometry width="80" height="44" as="geometry">
            <mxRectangle width="80" height="44" as="alternateBounds" />
          </mxGeometry>
        </mxCell>
        <mxCell id="SxJLtVNwrpAvZ2XM1vWD-168" value="DirecciÃ³n de memoria y estado a ejectuar." style="shape=partialRectangle;html=1;whiteSpace=wrap;connectable=0;strokeColor=inherit;overflow=hidden;fillColor=none;top=0;left=0;bottom=0;right=0;pointerEvents=1;fontSize=12;" parent="SxJLtVNwrpAvZ2XM1vWD-166" vertex="1">
          <mxGeometry x="80" width="320" height="44" as="geometry">
            <mxRectangle width="320" height="44" as="alternateBounds" />
          </mxGeometry>
        </mxCell>
        <mxCell id="SxJLtVNwrpAvZ2XM1vWD-169" value="out" style="shape=partialRectangle;html=1;whiteSpace=wrap;connectable=0;strokeColor=inherit;overflow=hidden;fillColor=none;top=0;left=0;bottom=0;right=0;pointerEvents=1;fontSize=12;" parent="SxJLtVNwrpAvZ2XM1vWD-166" vertex="1">
          <mxGeometry x="400" width="80" height="44" as="geometry">
            <mxRectangle width="80" height="44" as="alternateBounds" />
          </mxGeometry>
        </mxCell>
        <mxCell id="SxJLtVNwrpAvZ2XM1vWD-170" value="in" style="shape=partialRectangle;html=1;whiteSpace=wrap;connectable=0;strokeColor=inherit;overflow=hidden;fillColor=none;top=0;left=0;bottom=0;right=0;pointerEvents=1;fontSize=12;" parent="SxJLtVNwrpAvZ2XM1vWD-166" vertex="1">
          <mxGeometry x="480" width="80" height="44" as="geometry">
            <mxRectangle width="80" height="44" as="alternateBounds" />
          </mxGeometry>
        </mxCell>
        <mxCell id="SxJLtVNwrpAvZ2XM1vWD-171" value="-" style="shape=partialRectangle;html=1;whiteSpace=wrap;connectable=0;strokeColor=inherit;overflow=hidden;fillColor=none;top=0;left=0;bottom=0;right=0;pointerEvents=1;fontSize=12;" parent="SxJLtVNwrpAvZ2XM1vWD-166" vertex="1">
          <mxGeometry x="560" width="80" height="44" as="geometry">
            <mxRectangle width="80" height="44" as="alternateBounds" />
          </mxGeometry>
        </mxCell>
        <mxCell id="SxJLtVNwrpAvZ2XM1vWD-172" style="shape=tableRow;horizontal=0;startSize=0;swimlaneHead=0;swimlaneBody=0;strokeColor=inherit;top=0;left=0;bottom=0;right=0;collapsible=0;dropTarget=0;fillColor=none;points=[[0,0.5],[1,0.5]];portConstraint=eastwest;fontSize=16;" parent="SxJLtVNwrpAvZ2XM1vWD-135" vertex="1">
          <mxGeometry y="304" width="640" height="44" as="geometry" />
        </mxCell>
        <mxCell id="SxJLtVNwrpAvZ2XM1vWD-173" value="(WR_DEBUG)" style="shape=partialRectangle;html=1;whiteSpace=wrap;connectable=0;strokeColor=inherit;overflow=hidden;fillColor=none;top=0;left=0;bottom=0;right=0;pointerEvents=1;fontSize=12;" parent="SxJLtVNwrpAvZ2XM1vWD-172" vertex="1">
          <mxGeometry width="80" height="44" as="geometry">
            <mxRectangle width="80" height="44" as="alternateBounds" />
          </mxGeometry>
        </mxCell>
        <mxCell id="SxJLtVNwrpAvZ2XM1vWD-174" value="WR_EN, WR_ADDR y WR_DATA. SeÃ±ales para programa la memoria dual port en simulaciÃ³n." style="shape=partialRectangle;html=1;whiteSpace=wrap;connectable=0;strokeColor=inherit;overflow=hidden;fillColor=none;top=0;left=0;bottom=0;right=0;pointerEvents=1;fontSize=12;" parent="SxJLtVNwrpAvZ2XM1vWD-172" vertex="1">
          <mxGeometry x="80" width="320" height="44" as="geometry">
            <mxRectangle width="320" height="44" as="alternateBounds" />
          </mxGeometry>
        </mxCell>
        <mxCell id="SxJLtVNwrpAvZ2XM1vWD-175" value="-" style="shape=partialRectangle;html=1;whiteSpace=wrap;connectable=0;strokeColor=inherit;overflow=hidden;fillColor=none;top=0;left=0;bottom=0;right=0;pointerEvents=1;fontSize=12;" parent="SxJLtVNwrpAvZ2XM1vWD-172" vertex="1">
          <mxGeometry x="400" width="80" height="44" as="geometry">
            <mxRectangle width="80" height="44" as="alternateBounds" />
          </mxGeometry>
        </mxCell>
        <mxCell id="SxJLtVNwrpAvZ2XM1vWD-176" value="in" style="shape=partialRectangle;html=1;whiteSpace=wrap;connectable=0;strokeColor=inherit;overflow=hidden;fillColor=none;top=0;left=0;bottom=0;right=0;pointerEvents=1;fontSize=12;" parent="SxJLtVNwrpAvZ2XM1vWD-172" vertex="1">
          <mxGeometry x="480" width="80" height="44" as="geometry">
            <mxRectangle width="80" height="44" as="alternateBounds" />
          </mxGeometry>
        </mxCell>
        <mxCell id="SxJLtVNwrpAvZ2XM1vWD-177" value="-" style="shape=partialRectangle;html=1;whiteSpace=wrap;connectable=0;strokeColor=inherit;overflow=hidden;fillColor=none;top=0;left=0;bottom=0;right=0;pointerEvents=1;fontSize=12;" parent="SxJLtVNwrpAvZ2XM1vWD-172" vertex="1">
          <mxGeometry x="560" width="80" height="44" as="geometry">
            <mxRectangle width="80" height="44" as="alternateBounds" />
          </mxGeometry>
        </mxCell>
        <mxCell id="SxJLtVNwrpAvZ2XM1vWD-178" style="shape=tableRow;horizontal=0;startSize=0;swimlaneHead=0;swimlaneBody=0;strokeColor=inherit;top=0;left=0;bottom=0;right=0;collapsible=0;dropTarget=0;fillColor=none;points=[[0,0.5],[1,0.5]];portConstraint=eastwest;fontSize=16;" parent="SxJLtVNwrpAvZ2XM1vWD-135" vertex="1">
          <mxGeometry y="348" width="640" height="44" as="geometry" />
        </mxCell>
        <mxCell id="SxJLtVNwrpAvZ2XM1vWD-179" value="RD_DATA / CNT_LEN" style="shape=partialRectangle;html=1;whiteSpace=wrap;connectable=0;strokeColor=inherit;overflow=hidden;fillColor=none;top=0;left=0;bottom=0;right=0;pointerEvents=1;fontSize=12;" parent="SxJLtVNwrpAvZ2XM1vWD-178" vertex="1">
          <mxGeometry width="80" height="44" as="geometry">
            <mxRectangle width="80" height="44" as="alternateBounds" />
          </mxGeometry>
        </mxCell>
        <mxCell id="SxJLtVNwrpAvZ2XM1vWD-180" value="NÃºmero de pulsos que dura cada estado dentro de un ciclo del PWM." style="shape=partialRectangle;html=1;whiteSpace=wrap;connectable=0;strokeColor=inherit;overflow=hidden;fillColor=none;top=0;left=0;bottom=0;right=0;pointerEvents=1;fontSize=12;" parent="SxJLtVNwrpAvZ2XM1vWD-178" vertex="1">
          <mxGeometry x="80" width="320" height="44" as="geometry">
            <mxRectangle width="320" height="44" as="alternateBounds" />
          </mxGeometry>
        </mxCell>
        <mxCell id="SxJLtVNwrpAvZ2XM1vWD-181" value="-" style="shape=partialRectangle;html=1;whiteSpace=wrap;connectable=0;strokeColor=inherit;overflow=hidden;fillColor=none;top=0;left=0;bottom=0;right=0;pointerEvents=1;fontSize=12;" parent="SxJLtVNwrpAvZ2XM1vWD-178" vertex="1">
          <mxGeometry x="400" width="80" height="44" as="geometry">
            <mxRectangle width="80" height="44" as="alternateBounds" />
          </mxGeometry>
        </mxCell>
        <mxCell id="SxJLtVNwrpAvZ2XM1vWD-182" value="out" style="shape=partialRectangle;html=1;whiteSpace=wrap;connectable=0;strokeColor=inherit;overflow=hidden;fillColor=none;top=0;left=0;bottom=0;right=0;pointerEvents=1;fontSize=12;" parent="SxJLtVNwrpAvZ2XM1vWD-178" vertex="1">
          <mxGeometry x="480" width="80" height="44" as="geometry">
            <mxRectangle width="80" height="44" as="alternateBounds" />
          </mxGeometry>
        </mxCell>
        <mxCell id="SxJLtVNwrpAvZ2XM1vWD-183" value="in" style="shape=partialRectangle;html=1;whiteSpace=wrap;connectable=0;strokeColor=inherit;overflow=hidden;fillColor=none;top=0;left=0;bottom=0;right=0;pointerEvents=1;fontSize=12;" parent="SxJLtVNwrpAvZ2XM1vWD-178" vertex="1">
          <mxGeometry x="560" width="80" height="44" as="geometry">
            <mxRectangle width="80" height="44" as="alternateBounds" />
          </mxGeometry>
        </mxCell>
        <mxCell id="SxJLtVNwrpAvZ2XM1vWD-184" style="shape=tableRow;horizontal=0;startSize=0;swimlaneHead=0;swimlaneBody=0;strokeColor=inherit;top=0;left=0;bottom=0;right=0;collapsible=0;dropTarget=0;fillColor=none;points=[[0,0.5],[1,0.5]];portConstraint=eastwest;fontSize=16;" parent="SxJLtVNwrpAvZ2XM1vWD-135" vertex="1">
          <mxGeometry y="392" width="640" height="44" as="geometry" />
        </mxCell>
        <mxCell id="SxJLtVNwrpAvZ2XM1vWD-185" value="PWM_INIT" style="shape=partialRectangle;html=1;whiteSpace=wrap;connectable=0;strokeColor=inherit;overflow=hidden;fillColor=none;top=0;left=0;bottom=0;right=0;pointerEvents=1;fontSize=12;" parent="SxJLtVNwrpAvZ2XM1vWD-184" vertex="1">
          <mxGeometry width="80" height="44" as="geometry">
            <mxRectangle width="80" height="44" as="alternateBounds" />
          </mxGeometry>
        </mxCell>
        <mxCell id="SxJLtVNwrpAvZ2XM1vWD-186" value="Valor inicial de la salida del PWM." style="shape=partialRectangle;html=1;whiteSpace=wrap;connectable=0;strokeColor=inherit;overflow=hidden;fillColor=none;top=0;left=0;bottom=0;right=0;pointerEvents=1;fontSize=12;" parent="SxJLtVNwrpAvZ2XM1vWD-184" vertex="1">
          <mxGeometry x="80" width="320" height="44" as="geometry">
            <mxRectangle width="320" height="44" as="alternateBounds" />
          </mxGeometry>
        </mxCell>
        <mxCell id="SxJLtVNwrpAvZ2XM1vWD-187" value="-" style="shape=partialRectangle;html=1;whiteSpace=wrap;connectable=0;strokeColor=inherit;overflow=hidden;fillColor=none;top=0;left=0;bottom=0;right=0;pointerEvents=1;fontSize=12;" parent="SxJLtVNwrpAvZ2XM1vWD-184" vertex="1">
          <mxGeometry x="400" width="80" height="44" as="geometry">
            <mxRectangle width="80" height="44" as="alternateBounds" />
          </mxGeometry>
        </mxCell>
        <mxCell id="SxJLtVNwrpAvZ2XM1vWD-188" value="-" style="shape=partialRectangle;html=1;whiteSpace=wrap;connectable=0;strokeColor=inherit;overflow=hidden;fillColor=none;top=0;left=0;bottom=0;right=0;pointerEvents=1;fontSize=12;" parent="SxJLtVNwrpAvZ2XM1vWD-184" vertex="1">
          <mxGeometry x="480" width="80" height="44" as="geometry">
            <mxRectangle width="80" height="44" as="alternateBounds" />
          </mxGeometry>
        </mxCell>
        <mxCell id="SxJLtVNwrpAvZ2XM1vWD-189" value="in" style="shape=partialRectangle;html=1;whiteSpace=wrap;connectable=0;strokeColor=inherit;overflow=hidden;fillColor=none;top=0;left=0;bottom=0;right=0;pointerEvents=1;fontSize=12;" parent="SxJLtVNwrpAvZ2XM1vWD-184" vertex="1">
          <mxGeometry x="560" width="80" height="44" as="geometry">
            <mxRectangle width="80" height="44" as="alternateBounds" />
          </mxGeometry>
        </mxCell>
        <mxCell id="SxJLtVNwrpAvZ2XM1vWD-196" style="shape=tableRow;horizontal=0;startSize=0;swimlaneHead=0;swimlaneBody=0;strokeColor=inherit;top=0;left=0;bottom=0;right=0;collapsible=0;dropTarget=0;fillColor=none;points=[[0,0.5],[1,0.5]];portConstraint=eastwest;fontSize=16;" parent="SxJLtVNwrpAvZ2XM1vWD-135" vertex="1">
          <mxGeometry y="436" width="640" height="44" as="geometry" />
        </mxCell>
        <mxCell id="SxJLtVNwrpAvZ2XM1vWD-197" value="PWM" style="shape=partialRectangle;html=1;whiteSpace=wrap;connectable=0;strokeColor=inherit;overflow=hidden;fillColor=none;top=0;left=0;bottom=0;right=0;pointerEvents=1;fontSize=12;" parent="SxJLtVNwrpAvZ2XM1vWD-196" vertex="1">
          <mxGeometry width="80" height="44" as="geometry">
            <mxRectangle width="80" height="44" as="alternateBounds" />
          </mxGeometry>
        </mxCell>
        <mxCell id="SxJLtVNwrpAvZ2XM1vWD-198" value="Valor de salida del PWM." style="shape=partialRectangle;html=1;whiteSpace=wrap;connectable=0;strokeColor=inherit;overflow=hidden;fillColor=none;top=0;left=0;bottom=0;right=0;pointerEvents=1;fontSize=12;" parent="SxJLtVNwrpAvZ2XM1vWD-196" vertex="1">
          <mxGeometry x="80" width="320" height="44" as="geometry">
            <mxRectangle width="320" height="44" as="alternateBounds" />
          </mxGeometry>
        </mxCell>
        <mxCell id="SxJLtVNwrpAvZ2XM1vWD-199" value="-" style="shape=partialRectangle;html=1;whiteSpace=wrap;connectable=0;strokeColor=inherit;overflow=hidden;fillColor=none;top=0;left=0;bottom=0;right=0;pointerEvents=1;fontSize=12;" parent="SxJLtVNwrpAvZ2XM1vWD-196" vertex="1">
          <mxGeometry x="400" width="80" height="44" as="geometry">
            <mxRectangle width="80" height="44" as="alternateBounds" />
          </mxGeometry>
        </mxCell>
        <mxCell id="SxJLtVNwrpAvZ2XM1vWD-200" value="-" style="shape=partialRectangle;html=1;whiteSpace=wrap;connectable=0;strokeColor=inherit;overflow=hidden;fillColor=none;top=0;left=0;bottom=0;right=0;pointerEvents=1;fontSize=12;" parent="SxJLtVNwrpAvZ2XM1vWD-196" vertex="1">
          <mxGeometry x="480" width="80" height="44" as="geometry">
            <mxRectangle width="80" height="44" as="alternateBounds" />
          </mxGeometry>
        </mxCell>
        <mxCell id="SxJLtVNwrpAvZ2XM1vWD-201" value="out" style="shape=partialRectangle;html=1;whiteSpace=wrap;connectable=0;strokeColor=inherit;overflow=hidden;fillColor=none;top=0;left=0;bottom=0;right=0;pointerEvents=1;fontSize=12;" parent="SxJLtVNwrpAvZ2XM1vWD-196" vertex="1">
          <mxGeometry x="560" width="80" height="44" as="geometry">
            <mxRectangle width="80" height="44" as="alternateBounds" />
          </mxGeometry>
        </mxCell>
        <mxCell id="SxJLtVNwrpAvZ2XM1vWD-221" value="" style="group" parent="1" vertex="1" connectable="0">
          <mxGeometry x="810" y="1120" width="280" height="240" as="geometry" />
        </mxCell>
        <mxCell id="SxJLtVNwrpAvZ2XM1vWD-217" value="&lt;b&gt;state_ctrlr&amp;nbsp; -&amp;nbsp;&amp;nbsp;&lt;span style=&quot;background-color: transparent; color: light-dark(rgb(0, 0, 0), rgb(255, 255, 255));&quot;&gt;FSM&lt;/span&gt;&lt;/b&gt;" style="rounded=0;whiteSpace=wrap;html=1;strokeColor=#000000;fillColor=#E6E6E6;verticalAlign=top;movable=1;resizable=1;rotatable=1;deletable=1;editable=1;locked=0;connectable=1;container=0;" parent="SxJLtVNwrpAvZ2XM1vWD-221" vertex="1">
          <mxGeometry x="-10" width="280" height="240" as="geometry" />
        </mxCell>
        <mxCell id="SxJLtVNwrpAvZ2XM1vWD-207" style="edgeStyle=orthogonalEdgeStyle;rounded=0;orthogonalLoop=1;jettySize=auto;html=1;exitX=1;exitY=0.5;exitDx=0;exitDy=0;entryX=0.5;entryY=0;entryDx=0;entryDy=0;curved=1;movable=1;resizable=1;rotatable=1;deletable=1;editable=1;locked=0;connectable=1;" parent="SxJLtVNwrpAvZ2XM1vWD-221" source="SxJLtVNwrpAvZ2XM1vWD-202" target="SxJLtVNwrpAvZ2XM1vWD-203" edge="1">
          <mxGeometry relative="1" as="geometry" />
        </mxCell>
        <mxCell id="SxJLtVNwrpAvZ2XM1vWD-220" style="edgeStyle=isometricEdgeStyle;rounded=0;orthogonalLoop=1;jettySize=auto;html=1;exitX=0;exitY=0;exitDx=0;exitDy=0;elbow=vertical;startArrow=classic;startFill=1;endArrow=none;" parent="SxJLtVNwrpAvZ2XM1vWD-221" source="SxJLtVNwrpAvZ2XM1vWD-202" edge="1">
          <mxGeometry relative="1" as="geometry">
            <mxPoint x="60" y="30" as="targetPoint" />
            <Array as="points">
              <mxPoint x="60" y="40" />
            </Array>
          </mxGeometry>
        </mxCell>
        <mxCell id="SxJLtVNwrpAvZ2XM1vWD-202" value="S_IDLE" style="ellipse;whiteSpace=wrap;html=1;movable=1;resizable=1;rotatable=1;deletable=1;editable=1;locked=0;connectable=1;container=0;" parent="SxJLtVNwrpAvZ2XM1vWD-221" vertex="1">
          <mxGeometry x="50" y="50" width="80" height="40" as="geometry" />
        </mxCell>
        <mxCell id="SxJLtVNwrpAvZ2XM1vWD-208" style="edgeStyle=orthogonalEdgeStyle;rounded=0;orthogonalLoop=1;jettySize=auto;html=1;exitX=0;exitY=0.5;exitDx=0;exitDy=0;entryX=0.5;entryY=1;entryDx=0;entryDy=0;curved=1;movable=1;resizable=1;rotatable=1;deletable=1;editable=1;locked=0;connectable=1;" parent="SxJLtVNwrpAvZ2XM1vWD-221" source="SxJLtVNwrpAvZ2XM1vWD-203" target="SxJLtVNwrpAvZ2XM1vWD-202" edge="1">
          <mxGeometry relative="1" as="geometry" />
        </mxCell>
        <mxCell id="SxJLtVNwrpAvZ2XM1vWD-203" value="S_NEXT" style="ellipse;whiteSpace=wrap;html=1;movable=1;resizable=1;rotatable=1;deletable=1;editable=1;locked=0;connectable=1;container=0;" parent="SxJLtVNwrpAvZ2XM1vWD-221" vertex="1">
          <mxGeometry x="130" y="130" width="80" height="40" as="geometry" />
        </mxCell>
        <mxCell id="SxJLtVNwrpAvZ2XM1vWD-209" style="edgeStyle=orthogonalEdgeStyle;rounded=0;orthogonalLoop=1;jettySize=auto;html=1;exitX=1;exitY=1;exitDx=0;exitDy=0;entryX=0.5;entryY=1;entryDx=0;entryDy=0;curved=1;movable=1;resizable=1;rotatable=1;deletable=1;editable=1;locked=0;connectable=1;" parent="SxJLtVNwrpAvZ2XM1vWD-221" source="SxJLtVNwrpAvZ2XM1vWD-203" target="SxJLtVNwrpAvZ2XM1vWD-203" edge="1">
          <mxGeometry relative="1" as="geometry">
            <Array as="points">
              <mxPoint x="210" y="164" />
              <mxPoint x="210" y="200" />
              <mxPoint x="170" y="200" />
            </Array>
          </mxGeometry>
        </mxCell>
        <mxCell id="SxJLtVNwrpAvZ2XM1vWD-212" value="en" style="text;html=1;align=center;verticalAlign=middle;whiteSpace=wrap;rounded=0;movable=1;resizable=1;rotatable=1;deletable=1;editable=1;locked=0;connectable=1;container=0;" parent="SxJLtVNwrpAvZ2XM1vWD-221" vertex="1">
          <mxGeometry x="170" y="70" width="50" height="30" as="geometry" />
        </mxCell>
        <mxCell id="SxJLtVNwrpAvZ2XM1vWD-214" value="en &amp;amp; cnt_end" style="text;html=1;align=center;verticalAlign=middle;whiteSpace=wrap;rounded=0;movable=1;resizable=1;rotatable=1;deletable=1;editable=1;locked=0;connectable=1;container=0;" parent="SxJLtVNwrpAvZ2XM1vWD-221" vertex="1">
          <mxGeometry x="160" y="200" width="80" height="30" as="geometry" />
        </mxCell>
        <mxCell id="SxJLtVNwrpAvZ2XM1vWD-213" value="en &amp;amp; cnt_end &amp;amp; (rd_addr = addr_n)&amp;nbsp;" style="text;html=1;align=center;verticalAlign=middle;whiteSpace=wrap;rounded=0;snapToPoint=0;movable=1;resizable=1;rotatable=1;deletable=1;editable=1;locked=0;connectable=1;container=0;" parent="SxJLtVNwrpAvZ2XM1vWD-221" vertex="1">
          <mxGeometry y="140" width="110" height="30" as="geometry" />
        </mxCell>
        <mxCell id="SxJLtVNwrpAvZ2XM1vWD-216" value="" style="endArrow=none;html=1;rounded=0;movable=1;resizable=1;rotatable=1;deletable=1;editable=1;locked=0;connectable=1;" parent="SxJLtVNwrpAvZ2XM1vWD-221" edge="1">
          <mxGeometry width="50" height="50" relative="1" as="geometry">
            <mxPoint x="30" y="140" as="sourcePoint" />
            <mxPoint x="10" y="140" as="targetPoint" />
          </mxGeometry>
        </mxCell>
        <mxCell id="6HlnNBoYdWgncvJoV9WV-1" value="Anotaciones:&lt;div&gt;&lt;br&gt;&lt;/div&gt;&lt;div&gt;- En pwm_dp_mem, cuando hay un cambio en rd_addr se habilita la lectura.&lt;/div&gt;&lt;div&gt;&lt;br&gt;&lt;/div&gt;&lt;div&gt;- En pwm_counter, habrÃ­a que cargar PWM_INIT antes de activar el enable.&lt;/div&gt;&lt;div&gt;&lt;br&gt;&lt;/div&gt;&lt;div&gt;- Â¿CÃºantos ciclos de memoria va a haber al actualizar la pwm_dp_mem? Â¿Meter un estado de espera?&lt;/div&gt;&lt;div&gt;&lt;br&gt;&lt;/div&gt;&lt;div&gt;&lt;br&gt;&lt;/div&gt;" style="text;html=1;align=left;verticalAlign=top;whiteSpace=wrap;rounded=0;" parent="1" vertex="1">
          <mxGeometry x="100" y="1300" width="300" height="170" as="geometry" />
        </mxCell>
      </root>
    </mxGraphModel>
  </diagram>
</mxfile>
